<svg xmlns="http://www.w3.org/2000/svg" viewBox="0 0 200 200">
  
  <path d="M28 40 L172 40 L188 100 L172 160 L28 160 L12 100 Z" fill="#D9C9A8" stroke="#0E0E10" stroke-width="6"></path>
  
  <path d="M12 110 L188 60 L188 92 L12 142 Z" fill="#1B3A6B" opacity="0.22"></path>
  
  <path d="M100 36 Q70 36 60 70 L40 80 L60 88 Q60 110 100 110 Q140 110 140 88 L160 80 L140 70 Q130 36 100 36 Z M40 130 Q100 158 160 130 L160 144 Q100 174 40 144 Z" fill="#0E0E10" opacity="0.18"></path>
  
  <path d="M40 158 L100 142 L160 158 L160 168 L100 152 L40 168 Z" fill="#1B3A6B" opacity="0.85"></path>
  
  <text x="100" y="140" text-anchor="middle" font-family="Anton, Impact, &#39;Archivo Black&#39;, sans-serif" font-weight="400" font-size="132" fill="#0E0E10" stroke="#0E0E10" stroke-width="3" paint-order="stroke fill" letter-spacing="2">AU</text>
</svg>