<svg xmlns="http://www.w3.org/2000/svg" viewBox="0 0 200 200">
  
  <path d="M28 40 L172 40 L188 100 L172 160 L28 160 L12 100 Z" fill="#E8631A" stroke="#0A0A0E" stroke-width="6"></path>
  
  <path d="M12 110 L188 60 L188 92 L12 142 Z" fill="#6B6F76" opacity="0.22"></path>
  
  <g opacity="0.18"><path d="M100 24 Q124 60 124 110 L124 150 L76 150 L76 110 Q76 60 100 24 Z" fill="#F4F4F4"></path><path d="M76 130 L52 168 L76 158 Z M124 130 L148 168 L124 158 Z" fill="#F4F4F4"></path></g>
  
  <path d="M40 158 L100 142 L160 158 L160 168 L100 152 L40 168 Z" fill="#6B6F76" opacity="0.85"></path>
  
  <text x="100" y="140" text-anchor="middle" font-family="Anton, Impact, &#39;Archivo Black&#39;, sans-serif" font-weight="400" font-size="132" fill="#F4F5EE" stroke="#0A0A0E" stroke-width="3" paint-order="stroke fill" letter-spacing="2">NY</text>
</svg>