<svg xmlns="http://www.w3.org/2000/svg" viewBox="0 0 200 200">
  
  <path d="M28 40 L172 40 L188 100 L172 160 L28 160 L12 100 Z" fill="#7A4B2A" stroke="#0A0A0E" stroke-width="6"></path>
  
  <path d="M12 110 L188 60 L188 92 L12 142 Z" fill="#F4EAD2" opacity="0.22"></path>
  
  <path d="M100 28 Q60 28 60 100 L50 140 L150 140 L140 100 Q140 28 100 28 Z M90 150 Q90 168 100 168 Q110 168 110 150 Z" fill="#8B2E1F" opacity="0.18"></path>
  
  <path d="M40 158 L100 142 L160 158 L160 168 L100 152 L40 168 Z" fill="#F4EAD2" opacity="0.85"></path>
  
  <text x="100" y="140" text-anchor="middle" font-family="Anton, Impact, &#39;Archivo Black&#39;, sans-serif" font-weight="400" font-size="132" fill="#F4F5EE" stroke="#0A0A0E" stroke-width="3" paint-order="stroke fill" letter-spacing="2">PH</text>
</svg>