<svg xmlns="http://www.w3.org/2000/svg" viewBox="0 0 200 200">
  
  <path d="M28 40 L172 40 L188 100 L172 160 L28 160 L12 100 Z" fill="#E8851A" stroke="#0A0A0E" stroke-width="6"></path>
  
  <path d="M12 110 L188 60 L188 92 L12 142 Z" fill="#F2C94C" opacity="0.22"></path>
  
  <circle cx="100" cy="100" r="44" fill="none" stroke="#C0392B" stroke-width="10" opacity="0.22"></circle><g stroke="#C0392B" stroke-width="8" stroke-linecap="round" opacity="0.22"><line x1="100" y1="30" x2="100" y2="48"></line><line x1="100" y1="152" x2="100" y2="170"></line><line x1="30" y1="100" x2="48" y2="100"></line><line x1="152" y1="100" x2="170" y2="100"></line><line x1="50" y1="50" x2="64" y2="64"></line><line x1="136" y1="64" x2="150" y2="50"></line><line x1="50" y1="150" x2="64" y2="136"></line><line x1="136" y1="136" x2="150" y2="150"></line></g>
  
  <path d="M40 158 L100 142 L160 158 L160 168 L100 152 L40 168 Z" fill="#F2C94C" opacity="0.85"></path>
  
  <text x="100" y="140" text-anchor="middle" font-family="Anton, Impact, &#39;Archivo Black&#39;, sans-serif" font-weight="400" font-size="132" fill="#F4F5EE" stroke="#0A0A0E" stroke-width="3" paint-order="stroke fill" letter-spacing="2">SD</text>
</svg>