<svg xmlns="http://www.w3.org/2000/svg" viewBox="0 0 200 200">
  <circle cx="100" cy="100" r="92" fill="#F4EFE6"></circle>
  <circle cx="100" cy="100" r="92" fill="none" stroke="#C9A227" stroke-width="6"></circle>
  
  <ellipse cx="100" cy="46" rx="34" ry="9" fill="none" stroke="#C9A227" stroke-width="4"></ellipse>
  <ellipse cx="100" cy="46" rx="34" ry="9" fill="none" stroke="#F2C94C" stroke-width="2" opacity="0.7"></ellipse>
  
  <g transform="translate(100 110)">
    
    <path d="M-50 60 Q-46 -10 0 -10 Q46 -10 50 60 Z" fill="#0E0E10" stroke="#3A2415" stroke-width="2"></path>
    
    <rect x="-12" y="-12" width="24" height="10" fill="#F4EFE6" stroke="#0E0E10" stroke-width="1.5"></rect>
    <rect x="-3" y="-8" width="6" height="6" fill="#0E0E10"></rect>
    
    <ellipse cx="0" cy="-30" rx="20" ry="22" fill="#E8C9A0" stroke="#3A2415" stroke-width="2"></ellipse>
    
    <circle cx="-7" cy="-32" r="1.8" fill="#0E0E10"></circle>
    <circle cx="7" cy="-32" r="1.8" fill="#0E0E10"></circle>
    
    <path d="M-7 -22 Q0 -18 7 -22" stroke="#3A2415" stroke-width="1.8" fill="none" stroke-linecap="round"></path>
    
    <path d="M-18 -42 Q0 -56 18 -42" stroke="#3A2415" stroke-width="2.5" fill="none"></path>
    
    <rect x="22" y="6" width="22" height="28" rx="2" fill="#C9A227" stroke="#3A2415" stroke-width="2"></rect>
    <line x1="33" y1="8" x2="33" y2="32" stroke="#3A2415" stroke-width="1.5"></line>
    
    <g transform="translate(0 24)">
      <rect x="-2" y="-12" width="4" height="22" fill="#F2C94C"></rect>
      <rect x="-8" y="-4" width="16" height="4" fill="#F2C94C"></rect>
    </g>
  </g>
</svg>