<svg xmlns="http://www.w3.org/2000/svg" viewBox="0 0 200 200">
  <circle cx="100" cy="100" r="92" fill="#2F5233"></circle>
  <circle cx="100" cy="100" r="92" fill="none" stroke="#E8C547" stroke-width="6"></circle>
  
  <path d="M14 142 Q40 134 64 142 T114 142 T164 142 T186 142" stroke="#1F3A22" stroke-width="3" fill="none" opacity="0.8"></path>
  <path d="M14 158 Q40 150 64 158 T114 158 T164 158 T186 158" stroke="#1F3A22" stroke-width="3" fill="none" opacity="0.6"></path>
  
  <g transform="translate(100 102)">
    
    <path d="M-72 12 Q-72 -22 -40 -28 Q-20 -32 8 -28 L60 -22 Q78 -18 78 0 Q78 14 60 18 L-12 22 Q-50 22 -72 12 Z" fill="#3F6A40" stroke="#1A2E1C" stroke-width="3"></path>
    
    <g fill="#F4F4F4" stroke="#1A2E1C" stroke-width="1.2">
      <path d="M-20 22 L-16 32 L-12 22 Z"></path>
      <path d="M-6 22 L-2 34 L2 22 Z"></path>
      <path d="M10 22 L14 32 L18 22 Z"></path>
      <path d="M26 22 L30 30 L34 22 Z"></path>
      <path d="M42 22 L46 30 L50 22 Z"></path>
    </g>
    
    <ellipse cx="64" cy="-6" rx="3" ry="4" fill="#1A2E1C"></ellipse>
    <ellipse cx="58" cy="-12" rx="2" ry="3" fill="#1A2E1C"></ellipse>
    
    <ellipse cx="-32" cy="-30" rx="14" ry="10" fill="#3F6A40" stroke="#1A2E1C" stroke-width="2.5"></ellipse>
    <ellipse cx="-32" cy="-30" rx="6" ry="6" fill="#E8C547"></ellipse>
    <ellipse cx="-32" cy="-28" rx="2" ry="4.5" fill="#1A2E1C"></ellipse>
    
    <path d="M-50 -8 L-44 -16 L-38 -8 L-30 -14 L-24 -8 L-16 -14 L-10 -8 L-2 -14 L4 -8 L12 -14 L18 -8" stroke="#1A2E1C" stroke-width="2" fill="none"></path>
  </g>
</svg>