<svg xmlns="http://www.w3.org/2000/svg" viewBox="0 0 200 200">
  <defs>
    <radialGradient id="sunG" cx="0.5" cy="0.5" r="0.5">
      <stop offset="0%" stop-color="#FFE89A"></stop>
      <stop offset="40%" stop-color="#F2C94C"></stop>
      <stop offset="80%" stop-color="#E8851A"></stop>
      <stop offset="100%" stop-color="#C0392B"></stop>
    </radialGradient>
  </defs>
  <circle cx="100" cy="100" r="92" fill="#C0392B"></circle>
  <circle cx="100" cy="100" r="92" fill="none" stroke="#F2C94C" stroke-width="6"></circle>
  
  <g stroke="#F2C94C" stroke-width="6" stroke-linecap="round">
    <line x1="100" y1="20" x2="100" y2="42"></line>
    <line x1="100" y1="158" x2="100" y2="180"></line>
    <line x1="20" y1="100" x2="42" y2="100"></line>
    <line x1="158" y1="100" x2="180" y2="100"></line>
    <line x1="44" y1="44" x2="60" y2="60"></line>
    <line x1="140" y1="60" x2="156" y2="44"></line>
    <line x1="44" y1="156" x2="60" y2="140"></line>
    <line x1="140" y1="140" x2="156" y2="156"></line>
  </g>
  <g stroke="#E8851A" stroke-width="4" stroke-linecap="round" opacity="0.85">
    <line x1="68" y1="30" x2="74" y2="46"></line>
    <line x1="132" y1="30" x2="126" y2="46"></line>
    <line x1="68" y1="170" x2="74" y2="154"></line>
    <line x1="132" y1="170" x2="126" y2="154"></line>
    <line x1="30" y1="68" x2="46" y2="74"></line>
    <line x1="30" y1="132" x2="46" y2="126"></line>
    <line x1="170" y1="68" x2="154" y2="74"></line>
    <line x1="170" y1="132" x2="154" y2="126"></line>
  </g>
  
  <circle cx="100" cy="100" r="50" fill="url(#sunG)" stroke="#7A1A12" stroke-width="3"></circle>
  
  <circle cx="86" cy="94" r="4" fill="#7A1A12"></circle>
  <circle cx="114" cy="94" r="4" fill="#7A1A12"></circle>
  <path d="M82 112 Q100 124 118 112" stroke="#7A1A12" stroke-width="3" fill="none" stroke-linecap="round"></path>
</svg>